HIERARCHY
ROOT newVegas:Hips
{
	OFFSET 0.000000 96.479958 0.000000
	CHANNELS 6 Xposition Yposition Zposition Xrotation Yrotation Zrotation
	JOINT newVegas:Pelvis
	{
		OFFSET 0.000000 0.000000 0.000000
		CHANNELS 3 Xrotation Yrotation Zrotation
		JOINT newVegas:LeftUpLeg
		{
			OFFSET 18.735201 -5.666702 -4.541200
			CHANNELS 3 Xrotation Yrotation Zrotation
			JOINT newVegas:LeftLeg
			{
				OFFSET -0.021200 -31.938179 0.493100
				CHANNELS 3 Xrotation Yrotation Zrotation
				JOINT newVegas:LeftFoot
				{
					OFFSET 0.021200 -31.938179 -4.336299
					CHANNELS 3 Xrotation Yrotation Zrotation
					JOINT newVegas:LeftToeBase
					{
						OFFSET 0.943001 -26.722000 15.023500
						CHANNELS 3 Xrotation Yrotation Zrotation
						End Site
						{
							OFFSET 0.000000 30.670183 0.000000
						}
					}
				}
				JOINT newVegas:Left_PantLeg
				{
					OFFSET 0.663870 -9.044666 -1.108900
					CHANNELS 3 Xrotation Yrotation Zrotation
					End Site
					{
						OFFSET 1.415995 20.635357 0.000000
					}
				}
			}
		}
		JOINT newVegas:RightUpLeg
		{
			OFFSET -18.735201 -5.666702 -4.541200
			CHANNELS 3 Xrotation Yrotation Zrotation
			JOINT newVegas:RightLeg
			{
				OFFSET 0.018946 -31.938133 0.493100
				CHANNELS 3 Xrotation Yrotation Zrotation
				JOINT newVegas:RightFoot
				{
					OFFSET -0.018946 -31.938126 -4.336299
					CHANNELS 3 Xrotation Yrotation Zrotation
					JOINT newVegas:RightToeBase
					{
						OFFSET -0.943001 -26.722004 15.023500
						CHANNELS 3 Xrotation Yrotation Zrotation
						End Site
						{
							OFFSET 0.000000 30.670187 0.000000
						}
					}
				}
				JOINT newVegas:Right_PantLeg
				{
					OFFSET -0.661674 -9.044716 -1.108900
					CHANNELS 3 Xrotation Yrotation Zrotation
					End Site
					{
						OFFSET -1.415958 20.635269 0.000000
					}
				}
			}
		}
	}
	JOINT newVegas:Spine
	{
		OFFSET 0.000000 10.199997 -0.299500
		CHANNELS 3 Xrotation Yrotation Zrotation
		JOINT newVegas:Spine1
		{
			OFFSET 0.000000 11.900002 -1.516600
			CHANNELS 3 Xrotation Yrotation Zrotation
			JOINT newVegas:Spine2
			{
				OFFSET 0.000000 13.600006 -2.842500
				CHANNELS 3 Xrotation Yrotation Zrotation
				JOINT newVegas:Neck
				{
					OFFSET 0.000000 9.624100 -2.890100
					CHANNELS 3 Xrotation Yrotation Zrotation
					JOINT newVegas:Head
					{
						OFFSET 0.000000 14.068802 -1.351900
						CHANNELS 3 Xrotation Yrotation Zrotation
						JOINT newVegas:Hair_Back
						{
							OFFSET 0.000000 3.231903 -17.524799
							CHANNELS 3 Xrotation Yrotation Zrotation
							End Site
							{
								OFFSET 0.000000 19.849884 0.000000
							}
						}
						JOINT newVegas:Hair_Front
						{
							OFFSET 0.000000 31.260406 4.573800
							CHANNELS 3 Xrotation Yrotation Zrotation
							JOINT newVegas:Hair_Front1
							{
								OFFSET 0.000000 2.284103 11.993300
								CHANNELS 3 Xrotation Yrotation Zrotation
								JOINT newVegas:Hair_Front2
								{
									OFFSET 0.000000 2.284103 11.993300
									CHANNELS 3 Xrotation Yrotation Zrotation
									End Site
									{
										OFFSET 0.000000 12.208862 0.000000
									}
								}
							}
						}
						JOINT newVegas:Jowel
						{
							OFFSET 0.000000 -7.458206 6.864100
							CHANNELS 3 Xrotation Yrotation Zrotation
							End Site
							{
								OFFSET 0.000000 19.849884 0.000000
							}
						}
					}
				}
				JOINT newVegas:LeftShoulder
				{
					OFFSET 15.263000 10.923401 -0.547700
					CHANNELS 3 Xrotation Yrotation Zrotation
					JOINT newVegas:LeftArm
					{
						OFFSET 25.438599 -2.830597 -13.032500
						CHANNELS 3 Xrotation Yrotation Zrotation
						JOINT newVegas:LeftForeArm
						{
							OFFSET 29.960503 0.000000 0.000000
							CHANNELS 3 Xrotation Yrotation Zrotation
							JOINT newVegas:LeftHand
							{
								OFFSET 27.849251 0.000000 0.000000
								CHANNELS 3 Xrotation Yrotation Zrotation
								JOINT newVegas:LeftHandThumb1
								{
									OFFSET 4.487587 -3.305161 6.305391
									CHANNELS 3 Xrotation Yrotation Zrotation
									JOINT newVegas:LeftHandThumb2
									{
										OFFSET 5.480453 -3.164139 3.164143
										CHANNELS 3 Xrotation Yrotation Zrotation
										JOINT newVegas:LeftHandThumb3
										{
											OFFSET 5.159721 -2.978973 2.978967
											CHANNELS 3 Xrotation Yrotation Zrotation
											End Site
											{
												OFFSET 2.494507 5.926697 1.738678
											}
										}
									}
								}
								JOINT newVegas:LeftHandIndex1
								{
									OFFSET 18.578728 -0.527832 5.208049
									CHANNELS 3 Xrotation Yrotation Zrotation
									JOINT newVegas:LeftHandIndex2
									{
										OFFSET 3.192009 0.000000 0.000000
										CHANNELS 3 Xrotation Yrotation Zrotation
										JOINT newVegas:LeftHandIndex3
										{
											OFFSET 3.835129 0.000000 0.000000
											CHANNELS 3 Xrotation Yrotation Zrotation
											End Site
											{
												OFFSET -0.034599 3.816971 0.371180
											}
										}
									}
								}
								JOINT newVegas:LeftHandMiddle1
								{
									OFFSET 18.476105 0.000000 0.000000
									CHANNELS 3 Xrotation Yrotation Zrotation
									JOINT newVegas:LeftHandMiddle2
									{
										OFFSET 3.324875 0.000000 0.000000
										CHANNELS 3 Xrotation Yrotation Zrotation
										JOINT newVegas:LeftHandMiddle3
										{
											OFFSET 4.596550 0.000000 0.000000
											CHANNELS 3 Xrotation Yrotation Zrotation
											End Site
											{
												OFFSET 0.057701 4.578827 0.399218
											}
										}
									}
								}
								JOINT newVegas:LeftHandRing1
								{
									OFFSET 17.732719 0.121887 -4.201567
									CHANNELS 3 Xrotation Yrotation Zrotation
									JOINT newVegas:LeftHandRing2
									{
										OFFSET 2.733170 0.000000 0.000000
										CHANNELS 3 Xrotation Yrotation Zrotation
										JOINT newVegas:LeftHandRing3
										{
											OFFSET 3.178268 0.000000 0.000000
											CHANNELS 3 Xrotation Yrotation Zrotation
											End Site
											{
												OFFSET 0.119102 3.170624 0.185394
											}
										}
									}
								}
								JOINT newVegas:LeftHandPinky1
								{
									OFFSET 15.989624 -0.606689 -7.535461
									CHANNELS 3 Xrotation Yrotation Zrotation
									JOINT newVegas:LeftHandPinky2
									{
										OFFSET 2.538986 0.000000 0.000000
										CHANNELS 3 Xrotation Yrotation Zrotation
										JOINT newVegas:LeftHandPinky3
										{
											OFFSET 2.593102 0.000000 0.000000
											CHANNELS 3 Xrotation Yrotation Zrotation
											End Site
											{
												OFFSET -0.150902 2.584198 0.152708
											}
										}
									}
								}
							}
							JOINT newVegas:Left_Sleeve
							{
								OFFSET 0.267448 -0.649796 0.577675
								CHANNELS 3 Xrotation Yrotation Zrotation
								End Site
								{
									OFFSET 0.000000 15.991241 0.000000
								}
							}
							JOINT newVegas:Left_CapeC
							{
								OFFSET 15.715958 -8.608795 -6.935905
								CHANNELS 3 Xrotation Yrotation Zrotation
								JOINT newVegas:Left_CapeC1
								{
									OFFSET 0.000000 -8.688499 0.000000
									CHANNELS 3 Xrotation Yrotation Zrotation
									End Site
									{
										OFFSET 0.000000 8.688499 0.000000
									}
								}
							}
						}
						JOINT newVegas:Left_CapeB
						{
							OFFSET 26.118385 -8.608795 -7.079235
							CHANNELS 3 Xrotation Yrotation Zrotation
							JOINT newVegas:Left_CapeB1
							{
								OFFSET 0.000000 -8.688499 0.000000
								CHANNELS 3 Xrotation Yrotation Zrotation
								End Site
								{
									OFFSET 0.000000 8.688499 0.000000
								}
							}
						}
						JOINT newVegas:Left_CapeA
						{
							OFFSET 5.115639 -8.608795 -10.395809
							CHANNELS 3 Xrotation Yrotation Zrotation
							JOINT newVegas:Left_CapeA1
							{
								OFFSET 0.000000 -8.688499 0.000000
								CHANNELS 3 Xrotation Yrotation Zrotation
								End Site
								{
									OFFSET 0.000000 8.688499 0.000000
								}
							}
						}
					}
				}
				JOINT newVegas:RightShoulder
				{
					OFFSET -15.263000 10.923401 -0.547700
					CHANNELS 3 Xrotation Yrotation Zrotation
					JOINT newVegas:RightArm
					{
						OFFSET -25.438599 -2.830597 -13.032500
						CHANNELS 3 Xrotation Yrotation Zrotation
						JOINT newVegas:RightForeArm
						{
							OFFSET -29.960503 0.000000 0.000000
							CHANNELS 3 Xrotation Yrotation Zrotation
							JOINT newVegas:RightHand
							{
								OFFSET -27.849251 0.000000 0.000000
								CHANNELS 3 Xrotation Yrotation Zrotation
								JOINT newVegas:RightHandThumb1
								{
									OFFSET -4.487587 -3.305161 6.305391
									CHANNELS 3 Xrotation Yrotation Zrotation
									JOINT newVegas:RightHandThumb2
									{
										OFFSET -5.480453 -3.164139 3.164143
										CHANNELS 3 Xrotation Yrotation Zrotation
										JOINT newVegas:RightHandThumb3
										{
											OFFSET -5.159721 -2.978973 2.978967
											CHANNELS 3 Xrotation Yrotation Zrotation
											End Site
											{
												OFFSET -2.494507 5.926697 1.738678
											}
										}
									}
								}
								JOINT newVegas:RightHandIndex1
								{
									OFFSET -18.578728 -0.527832 5.208049
									CHANNELS 3 Xrotation Yrotation Zrotation
									JOINT newVegas:RightHandIndex2
									{
										OFFSET -3.192009 0.000000 0.000000
										CHANNELS 3 Xrotation Yrotation Zrotation
										JOINT newVegas:RightHandIndex3
										{
											OFFSET -3.835129 0.000000 0.000000
											CHANNELS 3 Xrotation Yrotation Zrotation
											End Site
											{
												OFFSET 0.034599 3.816971 0.371180
											}
										}
									}
								}
								JOINT newVegas:RightHandMiddle1
								{
									OFFSET -18.476105 0.000000 0.000000
									CHANNELS 3 Xrotation Yrotation Zrotation
									JOINT newVegas:RightHandMiddle2
									{
										OFFSET -3.324875 0.000000 0.000000
										CHANNELS 3 Xrotation Yrotation Zrotation
										JOINT newVegas:RightHandMiddle3
										{
											OFFSET -4.596550 0.000000 0.000000
											CHANNELS 3 Xrotation Yrotation Zrotation
											End Site
											{
												OFFSET -0.057701 4.578827 0.399218
											}
										}
									}
								}
								JOINT newVegas:RightHandRing1
								{
									OFFSET -17.732719 0.121887 -4.201567
									CHANNELS 3 Xrotation Yrotation Zrotation
									JOINT newVegas:RightHandRing2
									{
										OFFSET -2.733170 0.000000 0.000000
										CHANNELS 3 Xrotation Yrotation Zrotation
										JOINT newVegas:RightHandRing3
										{
											OFFSET -3.178268 0.000000 0.000000
											CHANNELS 3 Xrotation Yrotation Zrotation
											End Site
											{
												OFFSET -0.119102 3.170624 0.185394
											}
										}
									}
								}
								JOINT newVegas:RightHandPinky1
								{
									OFFSET -15.989624 -0.606689 -7.535461
									CHANNELS 3 Xrotation Yrotation Zrotation
									JOINT newVegas:RightHandPinky2
									{
										OFFSET -2.538986 0.000000 0.000000
										CHANNELS 3 Xrotation Yrotation Zrotation
										JOINT newVegas:RightHandPinky3
										{
											OFFSET -2.593102 0.000000 0.000000
											CHANNELS 3 Xrotation Yrotation Zrotation
											End Site
											{
												OFFSET 0.150902 2.584198 0.152708
											}
										}
									}
								}
							}
							JOINT newVegas:Right_CapeC
							{
								OFFSET -15.715958 -8.608795 -6.935905
								CHANNELS 3 Xrotation Yrotation Zrotation
								JOINT newVegas:Right_CapeC1
								{
									OFFSET 0.000000 -8.688499 0.000000
									CHANNELS 3 Xrotation Yrotation Zrotation
									End Site
									{
										OFFSET 0.000000 8.688499 0.000000
									}
								}
							}
							JOINT newVegas:Right_Sleeve
							{
								OFFSET -0.267448 -0.649994 0.577675
								CHANNELS 3 Xrotation Yrotation Zrotation
								End Site
								{
									OFFSET 0.000000 15.991302 0.000000
								}
							}
						}
						JOINT newVegas:Right_CapeA
						{
							OFFSET -5.115540 -8.608795 -10.395824
							CHANNELS 3 Xrotation Yrotation Zrotation
							JOINT newVegas:Right_CapeA1
							{
								OFFSET 0.000000 -8.688499 0.000000
								CHANNELS 3 Xrotation Yrotation Zrotation
								End Site
								{
									OFFSET 0.000000 8.688499 0.000000
								}
							}
						}
						JOINT newVegas:Right_CapeB
						{
							OFFSET -26.118187 -8.608795 -7.079266
							CHANNELS 3 Xrotation Yrotation Zrotation
							JOINT newVegas:Right_CapeB1
							{
								OFFSET 0.000000 -8.688499 0.000000
								CHANNELS 3 Xrotation Yrotation Zrotation
								End Site
								{
									OFFSET 0.000000 8.688499 0.000000
								}
							}
						}
					}
				}
				JOINT newVegas:Left_Collar
				{
					OFFSET 18.625099 8.655502 8.828100
					CHANNELS 3 Xrotation Yrotation Zrotation
					JOINT newVegas:Left_Collar1
					{
						OFFSET 14.783401 10.540405 -1.259500
						CHANNELS 3 Xrotation Yrotation Zrotation
						End Site
						{
							OFFSET 0.000000 18.199875 0.000000
						}
					}
				}
				JOINT newVegas:Collar_Back
				{
					OFFSET 0.000000 15.630707 -20.132601
					CHANNELS 3 Xrotation Yrotation Zrotation
					End Site
					{
						OFFSET 0.000000 22.523010 0.000000
					}
				}
				JOINT newVegas:Left_Peck
				{
					OFFSET 17.239599 -5.132599 25.482599
					CHANNELS 3 Xrotation Yrotation Zrotation
					End Site
					{
						OFFSET 0.000000 22.523010 0.000000
					}
				}
				JOINT newVegas:Right_Peck
				{
					OFFSET -17.239599 -5.132202 25.482599
					CHANNELS 3 Xrotation Yrotation Zrotation
					End Site
					{
						OFFSET 0.000000 22.523010 0.000000
					}
				}
				JOINT newVegas:Right_Collar
				{
					OFFSET -18.625099 8.655792 8.828100
					CHANNELS 3 Xrotation Yrotation Zrotation
					JOINT newVegas:Right_Collar1
					{
						OFFSET -14.783401 10.539993 -1.259500
						CHANNELS 3 Xrotation Yrotation Zrotation
						End Site
						{
							OFFSET 0.000000 18.199631 0.000000
						}
					}
				}
			}
		}
		JOINT newVegas:Belly
		{
			OFFSET 0.000000 -6.540398 9.014299
			CHANNELS 3 Xrotation Yrotation Zrotation
			End Site
			{
				OFFSET 0.000000 11.566666 0.000000
			}
		}
	}
	JOINT newVegas:ElvisFacialAnim_Joint
	{
		OFFSET 1.000000 -95.330101 -8.825800
		CHANNELS 3 Xrotation Yrotation Zrotation
		End Site
		{
			OFFSET 0.000000 35.315800 0.000000
		}
	}
}
MOTION
Frames: 4
Frame Time: 0.033333
-0.327455 93.435265 3.929391 -7.208476 -6.686008 2.535752 0.000000 0.000001 -0.000000 -12.984926 11.169799 7.486640 17.098757 6.754721 1.757078 4.274431 0.480896 -7.785803 -0.000000 0.000000 -0.000000 0.000000 -0.000000 0.000000 6.575687 -15.624801 -6.361659 23.322731 -8.743450 -2.737075 -22.065968 -6.754543 9.020815 0.000000 -0.000002 -0.000000 -0.000000 0.000001 -0.000001 5.301418 1.995335 -1.926927 1.464105 0.770705 -0.644636 1.462533 0.753557 -0.614886 0.948443 0.878017 0.357762 0.948443 0.878017 0.357762 0.000000 0.000000 -0.000000 0.948513 0.878017 0.357762 0.948439 0.878017 0.357762 0.000000 -0.000000 -0.000000 0.000000 0.000000 -0.000000 0.156798 -12.684413 -17.418796 5.694474 -1.503881 -42.123235 0.000085 -86.454253 0.000129 -124.545685 -2.343112 13.457023 -12.800125 -17.470096 4.121650 1.012370 0.758818 -1.430641 0.000001 -0.000002 -0.000008 -3.532546 4.254384 -63.954592 3.402094 5.315528 -65.218908 0.000002 -0.000002 -0.000000 2.434384 7.296046 -69.364075 3.297860 5.266345 -64.088662 0.000000 -0.000000 -0.000001 4.717029 8.075489 -77.582275 2.056293 4.456882 -49.517683 -0.000002 -0.000001 0.000001 6.410341 8.363753 -80.414583 1.722699 4.149871 -45.074406 -0.000003 -0.000003 -0.000001 0.000002 0.000002 -0.000000 0.000002 0.000002 -0.000000 0.000001 0.000002 -0.000000 0.000001 -0.000001 0.000001 0.000002 -0.000001 0.000001 0.000001 -0.000001 0.000001 0.000000 -0.000001 0.000000 0.747237 18.499146 11.537592 10.691042 23.556248 38.362160 -0.000602 97.832379 0.000583 -34.547961 -20.181131 22.178731 20.470574 7.475593 18.843592 4.151712 -12.160913 -33.848000 0.000002 0.000004 0.000002 -0.887542 1.431095 12.682300 1.917387 -3.767467 53.934316 -0.000002 -0.000001 0.000002 0.770903 -5.199570 54.618827 5.563851 -4.568227 101.238580 -0.000000 -0.000000 0.000002 6.934476 -8.544260 63.908769 2.909310 -4.317378 67.934708 -0.000000 0.000001 0.000000 8.373434 -8.171773 73.989943 2.173661 -3.940935 57.745384 -0.000002 0.000002 -0.000000 0.000001 -0.000003 -0.000002 0.000001 -0.000002 -0.000001 0.000001 -0.000003 -0.000002 -0.000000 -0.000001 0.000003 -0.000000 -0.000001 0.000003 -0.000000 -0.000001 0.000003 -0.000000 -0.000001 0.000004 0.000000 0.000000 -0.000000 0.000000 0.000000 -0.000000 0.000000 0.000000 -0.000000 0.000000 0.000000 -0.000000 0.000000 0.000000 -0.000000 0.000000 0.000000 -0.000000 0.000000 0.000000 -0.000000 0.000000 -0.000000 0.000000 0.000000 0.000001 -0.000000 
-0.860350 93.342613 3.802426 -7.470507 -9.490084 1.905407 0.000000 0.000000 0.000000 -15.269576 10.893026 9.446696 21.801921 7.122309 1.584407 4.770224 1.627367 -8.899646 -0.000000 0.000000 0.000000 0.000000 0.000001 -0.000001 5.183072 -14.177788 -6.284919 25.115806 -7.477133 -2.718596 -22.454500 -6.375731 8.255657 -0.000000 0.000000 -0.000000 0.000001 -0.000001 0.000000 5.794931 0.171337 -1.677652 2.958188 0.770705 -0.610813 2.776615 0.751688 -0.579043 0.753898 1.370320 0.321127 0.753903 1.370321 0.321127 0.000000 0.000000 -0.000000 0.753970 1.370319 0.321127 0.753898 1.370325 0.321126 -0.000000 -0.000000 0.000000 0.000000 0.000000 -0.000000 -0.357993 -12.740805 -17.092139 2.903751 -1.878812 -42.370344 0.000049 -82.634852 0.000112 -125.019660 -4.320909 13.457619 -13.695137 -18.999127 3.924353 0.133587 0.924245 -1.972031 0.000001 -0.000002 -0.000008 -2.739018 3.987016 -59.021365 2.843928 5.021463 -59.028858 -0.000000 0.000000 0.000000 2.084528 7.043247 -65.597711 3.245023 5.240439 -63.511545 -0.000003 0.000000 -0.000001 4.767627 8.091166 -76.144936 1.560412 3.981809 -42.785592 -0.000002 0.000001 -0.000000 7.004683 8.484442 -79.862383 1.471715 3.884018 -41.492481 0.000001 -0.000003 -0.000000 0.000003 0.000001 -0.000002 0.000003 0.000001 -0.000002 0.000002 0.000000 -0.000002 -0.000002 -0.000002 0.000001 -0.000002 -0.000002 0.000002 -0.000002 -0.000002 0.000001 -0.000002 -0.000002 0.000001 0.410447 17.336533 10.559388 9.760678 27.620001 42.353477 -0.001092 94.458900 0.000999 -36.293822 -18.354043 19.595804 20.426015 7.412188 18.816080 4.213686 -12.212069 -33.797234 -0.000000 0.000000 -0.000002 -0.887562 1.431092 12.682318 1.911418 -3.763106 53.843242 0.000001 0.000001 0.000001 0.782738 -5.207559 54.605826 5.567112 -4.567578 101.279227 0.000000 0.000003 -0.000001 6.886945 -8.523985 63.875936 2.919656 -4.321567 68.072008 -0.000000 0.000001 -0.000002 8.316933 -8.159465 73.946230 2.181060 -3.945592 57.852802 -0.000002 0.000001 0.000001 0.000001 -0.000001 -0.000001 0.000001 -0.000002 0.000001 0.000001 -0.000001 -0.000001 -0.000000 0.000000 0.000002 0.000000 0.000001 0.000003 -0.000000 0.000000 0.000002 0.000000 0.000001 0.000004 0.000000 -0.000000 -0.000000 0.000000 -0.000000 -0.000000 0.000000 -0.000000 -0.000000 0.000000 -0.000000 -0.000000 0.000000 -0.000000 -0.000000 0.000000 -0.000000 -0.000000 0.000000 -0.000000 -0.000000 0.000000 -0.000000 0.000000 0.000000 0.000000 0.000000 
-1.344044 93.178741 3.706919 -7.763868 -12.286874 1.232701 0.000000 0.000001 -0.000000 -18.337513 10.596527 12.085347 26.902406 6.111229 1.042881 7.181470 3.398794 -10.350806 0.000001 0.000000 -0.000000 -0.000000 -0.000000 0.000001 3.758146 -12.737388 -6.153399 27.064925 -6.282486 -2.757211 -22.907485 -5.959495 7.601745 -0.000000 -0.000002 0.000000 0.000000 0.000004 -0.000001 6.302988 -1.649065 -1.406173 4.447462 0.772305 -0.577142 4.084109 0.747957 -0.543366 0.563129 1.861246 0.277011 0.563131 1.861240 0.277013 0.000001 -0.000000 0.000000 0.563134 1.861244 0.277012 0.563204 1.861243 0.277010 -0.000000 -0.000000 -0.000000 0.000001 -0.000000 0.000000 -1.417808 -12.878214 -16.430807 -2.763709 -2.521965 -43.335505 -0.000060 -74.845315 -0.000054 -126.067206 -8.415135 13.384315 -14.962351 -20.974398 3.587754 -0.998842 1.245764 -2.665476 0.000001 -0.000002 0.000004 -1.965514 3.869674 -54.039186 2.286972 4.643296 -52.424963 -0.000000 -0.000001 -0.000000 1.747716 6.760725 -61.761432 3.192420 5.214038 -62.934463 0.000000 0.000000 -0.000001 4.888784 8.131483 -74.812886 1.074927 3.383784 -35.238104 0.000000 -0.000001 -0.000001 7.819662 8.655766 -79.379762 1.204771 3.560180 -37.382496 -0.000001 -0.000003 0.000000 -0.000002 0.000000 -0.000003 -0.000002 0.000000 -0.000003 -0.000003 -0.000000 -0.000003 -0.000000 -0.000001 -0.000000 0.000000 -0.000001 0.000000 -0.000000 -0.000001 -0.000000 -0.000001 0.000000 -0.000001 -0.374844 15.153241 8.638607 6.955103 32.700005 48.463887 0.006348 90.338930 -0.006783 -38.570396 -16.938978 16.304421 20.296754 7.229111 18.736153 4.393882 -12.359138 -33.649354 0.000001 -0.000003 0.000001 -0.887561 1.431093 12.682309 1.894163 -3.750448 53.579638 -0.000001 -0.000001 0.000003 0.817034 -5.230646 54.568195 5.576465 -4.565727 101.396856 0.000001 0.000001 -0.000001 6.749523 -8.464976 63.781065 2.949631 -4.333466 68.469327 -0.000000 -0.000001 0.000000 8.153520 -8.123349 73.819851 2.202489 -3.958944 58.163746 -0.000001 0.000001 0.000001 0.000000 0.000000 0.000000 -0.000000 0.000000 0.000000 0.000001 0.000001 -0.000001 0.000000 -0.000003 -0.000000 0.000001 -0.000003 -0.000000 0.000000 -0.000003 -0.000000 0.000000 -0.000003 0.000001 0.000000 0.000000 -0.000000 0.000000 0.000000 -0.000000 0.000000 0.000000 -0.000000 0.000000 0.000000 -0.000000 0.000000 0.000000 -0.000000 0.000000 0.000000 -0.000000 0.000000 0.000000 -0.000000 0.000000 -0.000000 -0.000000 0.000000 0.000001 -0.000000 
-1.825176 93.028954 3.581874 -8.089146 -15.094042 0.542213 -0.000000 -0.000000 -0.000000 -19.952557 10.223398 14.477085 30.095087 5.607478 0.598594 9.646317 4.828347 -12.170023 -0.000001 -0.000001 0.000000 0.000000 0.000001 -0.000000 2.405771 -11.328425 -5.863600 28.799803 -5.495968 -2.989167 -23.191581 -5.214335 7.186545 0.000000 -0.000000 -0.000000 0.000001 0.000001 -0.000000 6.829852 -3.473348 -1.140892 5.946347 0.775664 -0.543168 5.404812 0.744100 -0.507357 0.375522 2.353244 0.224970 0.375526 2.353242 0.224970 -0.000001 -0.000000 -0.000000 0.375589 2.353232 0.224968 0.375520 2.353246 0.224969 0.000001 -0.000000 -0.000000 -0.000001 -0.000000 -0.000000 -2.295661 -13.013444 -15.894753 -7.346235 -2.901377 -44.608198 -0.000008 -68.376163 -0.000027 -127.036068 -11.801167 13.218231 -14.549807 -20.638962 3.731119 -0.721348 1.084632 -2.531729 0.000002 0.000002 -0.000001 -1.299037 3.862710 -49.211889 1.934093 4.349912 -47.926006 -0.000000 -0.000001 -0.000001 1.458564 6.483120 -58.298130 3.140126 5.187099 -62.357441 -0.000001 -0.000001 0.000000 4.648466 8.079129 -72.953305 0.881468 3.092230 -31.814143 0.000000 -0.000001 0.000001 7.519132 8.639639 -78.556157 1.115860 3.440903 -35.926208 0.000001 -0.000005 0.000001 -0.000001 0.000000 -0.000001 -0.000001 0.000000 -0.000001 -0.000001 -0.000001 -0.000001 0.000003 -0.000003 -0.000005 0.000004 -0.000003 -0.000004 0.000003 -0.000003 -0.000005 0.000002 -0.000002 -0.000005 -1.274847 13.244354 6.874771 4.307283 36.878206 54.157618 0.000144 87.265133 -0.000197 -40.349681 -16.109399 12.230371 20.088739 6.937495 18.607302 4.684686 -12.591324 -33.409689 0.000001 0.000000 -0.000004 -0.887565 1.431081 12.682303 1.866644 -3.730037 53.157863 0.000001 -0.000001 0.000001 0.871847 -5.267678 54.508000 5.591431 -4.562688 101.585076 0.000000 -0.000001 -0.000000 6.530096 -8.369696 63.629626 2.997759 -4.352100 69.105101 -0.000000 -0.000004 -0.000001 7.892455 -8.064162 73.617958 2.236930 -3.980055 58.661285 -0.000001 -0.000004 -0.000001 0.000001 -0.000001 -0.000003 -0.000003 -0.000000 -0.000002 -0.000001 0.000000 -0.000005 0.000001 0.000001 -0.000000 0.000001 0.000001 -0.000001 0.000001 0.000001 -0.000000 0.000001 0.000001 -0.000001 0.000001 0.000000 -0.000000 0.000001 0.000000 -0.000000 0.000001 0.000000 -0.000000 0.000001 0.000000 -0.000000 0.000001 0.000000 -0.000000 0.000001 0.000000 -0.000000 0.000001 0.000000 -0.000000 -0.000000 -0.000001 -0.000000 -0.000000 -0.000000 -0.000000 
